<?xml version="1.0" standalone="no"?>
<!DOCTYPE svg PUBLIC "-//W3C//DTD SVG 20010904//EN"
 "http://www.w3.org/TR/2001/REC-SVG-20010904/DTD/svg10.dtd">
<svg version="1.0" xmlns="http://www.w3.org/2000/svg"
 width="947.000000pt" height="947.000000pt" viewBox="0 0 947.000000 947.000000"
 preserveAspectRatio="xMidYMid meet">
<metadata>
Created by potrace 1.11, written by Peter Selinger 2001-2013
</metadata>
<g transform="translate(0.000000,947.000000) scale(0.100000,-0.100000)"
fill="#000000" stroke="none">
<path d="M1476 6218 c-22 -13 -49 -36 -60 -51 l-21 -28 -3 -1498 c-2 -1423 -1
-1499 16 -1514 52 -47 315 -49 378 -2 18 13 19 38 20 587 1 315 2 575 3 578 0
3 106 5 234 6 287 1 381 9 517 44 319 82 534 252 660 524 90 193 114 406 75
668 -15 102 -92 270 -164 358 -147 182 -344 283 -656 335 -22 4 -247 9 -500
11 l-460 4 -39 -22z m849 -332 c85 -8 101 -11 174 -31 67 -20 185 -91 225
-136 91 -102 145 -245 150 -399 11 -362 -174 -603 -514 -669 -62 -13 -536 -18
-547 -7 -9 9 -11 1239 -2 1246 10 7 431 4 514 -4z"/>
<path d="M4061 6233 c-41 -8 -90 -52 -101 -92 -6 -23 -10 -548 -10 -1517 0
-1411 1 -1482 18 -1497 65 -59 379 -42 394 21 2 9 4 317 4 685 l-1 667 181 0
c211 0 274 -9 369 -55 133 -64 229 -174 318 -366 51 -108 53 -113 233 -576 82
-211 144 -357 158 -371 13 -13 40 -28 62 -33 50 -12 246 -10 293 3 84 24 80
64 -42 363 -25 61 -91 223 -147 360 -102 252 -127 310 -182 420 -76 152 -186
281 -296 346 l-61 36 77 31 c151 62 302 172 384 282 109 146 157 361 133 595
-39 371 -332 630 -780 690 -56 8 -966 14 -1004 8z m939 -361 c206 -43 322
-135 381 -303 20 -54 23 -84 23 -199 0 -120 -3 -142 -25 -197 -60 -154 -167
-245 -359 -306 -58 -18 -98 -21 -360 -24 l-295 -5 0 522 c0 393 3 523 12 528
7 4 128 7 270 6 212 -2 275 -6 353 -22z"/>
<path d="M6720 6217 c-27 -14 -51 -36 -63 -60 -18 -35 -19 -80 -19 -1523 0
-1427 1 -1488 19 -1505 49 -49 314 -52 379 -4 18 13 19 40 19 673 0 363 3 664
7 668 4 4 253 7 552 7 528 0 546 0 566 19 32 30 41 63 41 147 -1 104 -7 132
-37 159 l-25 22 -550 0 c-302 0 -550 3 -550 8 -3 17 -5 1038 -2 1047 2 7 204
10 581 9 317 0 585 3 594 8 34 16 50 67 51 157 2 102 -20 175 -56 185 -12 3
-346 6 -743 6 l-721 0 -43 -23z"/>
</g>
</svg>
